<svg viewBox="0 0 24 24" xmlns="http://www.w3.org/2000/svg" fill="none" stroke="currentColor" stroke-width="1.5" stroke-linecap="round" stroke-linejoin="round">
  <!-- Acoustic guitar: body, neck, headstock, sound hole -->
  <path d="M16.5 19.5c2.5 0 4.5-2.7 4.5-5.5 0-2-1-3.7-2.5-4.5.3-1 .5-2 .5-3V3l-1 1-1-1v3.5c0 1-.2 2-.5 3C15 10.3 14 12 14 14c0 2.8 0 5.5 2.5 5.5z"/>
  <circle cx="17" cy="14.5" r="1.5"/>
  <line x1="19" y1="3" x2="19" y2="6.5"/>
  <!-- Neck and frets -->
  <line x1="17" y1="6.5" x2="17" y2="9.5"/>
  <line x1="16" y1="7.5" x2="20" y2="7.5"/>
  <line x1="16" y1="8.5" x2="20" y2="8.5"/>
  <!-- Simplified body outline -->
  <path d="M11 17c0-2 1-3.5 2-5"/>
  <path d="M11 17c-1.5 0-3-1-3.5-2.5S7 12 7.5 11c.5-1 1.5-1.5 2.5-1.5"/>
</svg>
