<svg viewBox="0 0 1024 1024" xmlns="http://www.w3.org/2000/svg">
  <!-- Synthesizer: waveform + keyboard -->
  <!-- Sine wave on screen -->
  <path d="M192 320c64-128 128 0 192-128s128 128 192 0 128-128 192 0" fill="none" stroke="currentColor" stroke-width="56" stroke-linecap="round"/>
  <!-- Synth body -->
  <rect x="128" y="448" width="768" height="384" rx="32" fill="none" stroke="currentColor" stroke-width="56"/>
  <!-- Knobs -->
  <circle cx="256" cy="544" r="40" fill="currentColor"/>
  <circle cx="384" cy="544" r="40" fill="currentColor"/>
  <circle cx="512" cy="544" r="40" fill="currentColor"/>
  <!-- Keys bottom row -->
  <rect x="192" y="672" width="80" height="112" rx="4" fill="currentColor"/>
  <rect x="288" y="672" width="80" height="112" rx="4" fill="currentColor"/>
  <rect x="384" y="672" width="80" height="112" rx="4" fill="currentColor"/>
  <rect x="480" y="672" width="80" height="112" rx="4" fill="currentColor"/>
  <rect x="576" y="672" width="80" height="112" rx="4" fill="currentColor"/>
  <rect x="672" y="672" width="80" height="112" rx="4" fill="currentColor"/>
  <rect x="768" y="672" width="80" height="112" rx="4" fill="currentColor"/>
</svg>
