<svg viewBox="0 0 24 24" xmlns="http://www.w3.org/2000/svg" fill="none" stroke="currentColor" stroke-width="1.5" stroke-linecap="round" stroke-linejoin="round">
  <!-- Synthesizer: waveform on top, body with knobs and keys -->
  <!-- Waveform -->
  <path d="M3 6c1.5-3 3 0 4.5-3S10.5 6 12 3s3 3 4.5 0S19.5 6 21 3"/>
  <!-- Synth body -->
  <rect x="2" y="10" width="20" height="11" rx="1.5"/>
  <!-- Knobs row -->
  <circle cx="6" cy="13.5" r="1.2"/>
  <circle cx="10" cy="13.5" r="1.2"/>
  <circle cx="14" cy="13.5" r="1.2"/>
  <!-- Fader -->
  <line x1="18" y1="11.5" x2="18" y2="15.5"/>
  <line x1="17" y1="13" x2="19" y2="13"/>
  <!-- Keys -->
  <rect x="4" y="17" width="2.5" height="3" rx="0.3"/>
  <rect x="7" y="17" width="2.5" height="3" rx="0.3"/>
  <rect x="10" y="17" width="2.5" height="3" rx="0.3"/>
  <rect x="13" y="17" width="2.5" height="3" rx="0.3"/>
  <rect x="16" y="17" width="2.5" height="3" rx="0.3"/>
  <rect x="19" y="17" width="2.5" height="3" rx="0.3"/>
</svg>
